<?xml version="1.0" encoding="UTF-8"?>
<svg id="Layer_2" data-name="Layer 2" xmlns="http://www.w3.org/2000/svg" viewBox="0 0 1865.77 793.89">
  <defs>
    <style>
      .cls-1, .cls-2 {
        fill: #fff;
      }

      .cls-1, .cls-3 {
        fill-rule: evenodd;
      }

      .cls-4, .cls-3 {
        fill: #f18449;
      }
    </style>
  </defs>
  <g id="PC_LOGO_PRIMARY_NEG_241121">
    <g id="PC_LOGO_PRIMARY_NEG_240823">
      <path id="STROKE" d="M1861.05,232.23c-3.83-4.57-9.48-7.2-15.44-7.2h-6.97c-1.03,0-2.04.08-3.03.23-.99-.15-2.01-.23-3.04-.23h-6.97c-.25,0-.5,0-.75.01-.25,0-.5-.01-.74-.01h-14.84c-2.85,0-5.59.6-8.07,1.68-3.51-1.02-7.29-1.54-11.27-1.54h-132.78c-4.02,0-7.98.56-11.77,1.64-2.53-1.12-5.31-1.74-8.19-1.74h-33.41c-1.55,0-3.06.18-4.52.51-1.34-.28-2.71-.42-4.09-.42h-68.69c-5.3,0-10.4,2.09-14.17,5.82l-6.78,6.7c-.76-1.85-1.8-3.6-3.1-5.18-3.83-4.65-9.54-7.34-15.56-7.34h-109.98c-7.28,0-13.99,3.92-17.56,10.26l-17.09,30.31-4.42-24.06c-1.76-9.57-10.1-16.52-19.83-16.52h-52.04c-7.41,0-14.22,4.06-17.74,10.58l-16.93,31.35-5.87-26.19c-2.06-9.21-10.24-15.75-19.67-15.75h-57.59c-3.37,0-6.64.84-9.53,2.4-2.86-1.54-6.12-2.4-9.53-2.4h-56.44c-6.68,0-12.93,3.31-16.68,8.83l-44.52,65.56,9.81-50.38c1.15-5.91-.4-12.03-4.23-16.67-3.83-4.65-9.54-7.34-15.56-7.34h-53.96c-9.65,0-17.95,6.84-19.79,16.31l-7.11,36.54h-27.8l5.61-28.83c1.15-5.91-.4-12.03-4.23-16.67-3.83-4.65-9.54-7.34-15.56-7.34h-53.96c-6.97,0-13.24,3.57-16.88,9.13-.4-.62-.84-1.21-1.32-1.79-3.83-4.65-9.54-7.34-15.56-7.34h-57.78c-5.86,0-11.42,2.55-15.25,6.98l-29.93,34.62-14.29-30.09c-3.34-7.03-10.43-11.51-18.21-11.51h-57.78c-1.5,0-2.97.17-4.39.48-1.42-.32-2.89-.48-4.38-.48h-54.15c-9.65,0-17.95,6.84-19.79,16.31l-5.31,27.27-28.34-35.91c-3.82-4.84-9.65-7.67-15.83-7.67h-53.38c-5.63,0-10.8,2.33-14.5,6.15-5.76-4.01-12.9-6.15-20.78-6.15h-141.2c-6.52,0-12.64,1.43-18.09,4.07-3.47-2.62-7.72-4.07-12.15-4.07H28.22c-9.65,0-17.94,6.84-19.79,16.31L.37,282.88c-1.15,5.91.4,12.03,4.23,16.67,3.83,4.65,9.54,7.34,15.56,7.34h37.15l-15.64,80.34c-1.15,5.91.4,12.03,4.23,16.67,3.83,4.65,9.54,7.34,15.56,7.34h44.06c-1.91,2.44-3.28,5.36-3.91,8.57l-40.23,207.08c-1.15,5.91.41,12.02,4.23,16.67,3.83,4.65,9.53,7.34,15.56,7.34h46.13c9.65,0,17.95-6.84,19.79-16.32l9.78-50.36h35.48c3.66,0,7.14-.28,10.45-.85l-8.45,43.52c-1.15,5.91.41,12.02,4.23,16.67,3.83,4.65,9.54,7.34,15.56,7.34h46.13c7.03,0,13.34-3.63,16.96-9.26,3.62,5.62,9.92,9.26,16.96,9.26h48.3c3.9,0,7.59-1.12,10.71-3.08,5.21,2.05,11.24,3.08,18.06,3.08h78.42c25.56,0,43.09-14.74,48.08-40.44l30.85-158.84c2.81-14.47.55-26.27-6.71-35.08-1.65-2-3.48-3.77-5.51-5.31h42.01c-10.27,6.82-17.26,17.95-20.12,32.7l-9.9,50.96c-1.42,7.29-4.73,24.36,11.56,37.45.05.04.1.08.15.12l49.17,38.74-.33,1.7h-40.5c-.5,0-.99.02-1.49.06-12.4.92-21.7,3.93-29.29,9.48-7.42,5.43-12.68,13.1-15.69,22.86-.48,1.2-.86,2.46-1.11,3.77l-3.41,17.89c-1.13,5.9.44,12,4.27,16.63,3.83,4.63,9.53,7.31,15.53,7.31h103.5c8.56,0,16.22-1.63,22.82-4.75,3.61,3.04,8.2,4.75,13,4.75h46.13c5.78,0,11.08-2.45,14.79-6.46,3.71,4,9,6.46,14.79,6.46h93.35c8.55,0,16.17-5.4,19.01-13.46l6.14-17.44h.64l-.36,10.01c-.2,5.47,1.84,10.78,5.64,14.72,3.8,3.94,9.04,6.16,14.51,6.16h46.13c1.89,0,3.73-.26,5.47-.75,1.76.5,3.6.75,5.46.75h46.13c9.65,0,17.95-6.84,19.79-16.32l29.11-149.84h3.57l-24.3,125.07c-.18.9-.29,1.81-.34,2.73-.83,14.91,5.83,23.8,11.56,28.64,6.57,5.55,15.4,8.7,27,9.65.54.04,1.09.07,1.63.07h84.89c1.54,0,3.04-.17,4.48-.5,1.45.33,2.95.5,4.47.5h46.13c7.03,0,13.34-3.63,16.96-9.26,3.62,5.62,9.92,9.26,16.96,9.26h48.3c9.65,0,17.95-6.84,19.79-16.32l.37-1.9c.48-2.49.49-5.06.03-7.55l-12.26-65.55c14.03-6.02,23.53-18.57,27-36.4l12.17-62.67h4.15c.61,0,1.22-.03,1.82-.08.6.05,1.21.08,1.82.08h3.8c.61,0,1.22-.03,1.82-.08.6.05,1.21.08,1.82.08h4.46c3.92,0,7.62-1.13,10.75-3.1-.1.52-.19,1.04-.28,1.56l-4.96,28.11c-1.03,5.87.58,11.89,4.41,16.46,3.31,3.95,7.99,6.45,13.04,7.06-.64,4.34.14,8.85,2.35,12.8.35.62,8.61,15.34,16.38,27.56,1.93,3.03,3.99,6.06,6.35,8.91h-40.27c-9.78,0-18.16,7.02-19.85,16.66l-5.86,33.22c-3.39,19.24.19,35.81,10.36,47.94,6.92,8.24,20.23,18.07,44.37,18.07h55.49c19.14,0,35.88-6.23,48.42-18.02,11-10.34,18.34-24.51,21.25-40.99l9.14-51.84c.25-1.4.46-2.76.64-4.09h5.67l-1.42,7.31c-1.15,5.91.4,12.03,4.23,16.67,3.83,4.65,9.54,7.34,15.56,7.34h21.96c1.17,0,2.33-.1,3.48-.3,8.33-1.46,15.71-5.9,21.01-12.32l-6.17,34.98c-1.04,5.87.58,11.89,4.41,16.46,3.83,4.57,9.48,7.2,15.44,7.2h59.94l-2.46,13.94c-1.03,5.87.58,11.89,4.41,16.46,3.83,4.57,9.48,7.2,15.44,7.2h50.02c9.78,0,18.16-7.02,19.85-16.66l3.73-21.14c21.56-1.72,30.41-14.24,39.74-27.44,8.49-12.02,18.18-25.45,18.27-25.58,4.43-6.14,5.05-14.23,1.6-20.97-3.44-6.74-10.37-10.98-17.93-10.99l-26.69-.03,23.13-131.16c.77-4.36.08-8.81-1.9-12.68,5.25-1.72,10.11-4.46,14.3-8.11,7.37-6.42,12.32-15.19,14.29-25.35l7.35-37.77c1.61-8.28,1.02-15.34-1.8-21.59-.61-1.34-1.38-2.79-2.38-4.26,6.1-2.52,10.76-7.97,12.09-14.78l2.95-15.15c.44.03.89.04,1.34.04h4.46c.61,0,1.22-.03,1.82-.08.6.05,1.21.08,1.82.08h3.8c.61,0,1.22-.03,1.82-.08.6.05,1.21.08,1.82.08h4.46c9.78,0,18.15-7.02,19.85-16.66l2.96-16.8c1.04-5.87-.58-11.89-4.41-16.46ZM1602.9,491.81h-7.75l1.42-7.31c1.15-5.91-.4-12.03-4.23-16.67-3.83-4.65-9.54-7.34-15.56-7.34h-15.1c-.98,0-1.96.07-2.92.21-.45-.02-.91-.03-1.36-.03-15.49,0-29.09,10.13-33.86,25.21-.23.73-.42,1.47-.57,2.22l-.72,3.69h-.96c-1.24,0-2.48.11-3.69.34-1.67.1-3.32.3-4.92.61l4.92-27.88c2.52-14.27,4.38-34.99-8.38-50.2-1.05-1.25-2.16-2.42-3.33-3.53.65.06,1.3.1,1.96.1h70.03c9.65,0,17.94-6.83,19.79-16.3l.17-.86c.96,1.74,2.08,3.39,3.35,4.93,6.5,7.88,16.29,12.23,27.58,12.23h40.58l-52.12,86.54c-3.77-3.81-8.92-5.98-14.33-5.98ZM1477.1,398.84c.52-1.24.91-2.55,1.18-3.91l1.46-7.52,11.14,14.66c-4.15-1.52-8.74-2.59-13.79-3.23ZM1545.15,316.67l26.38-22.95c1.35,4.65,4.36,8.78,8.69,11.48,3.29,2.05,6.99,3.06,10.67,3.06,4.95,0,9.87-1.82,13.7-5.37l3.02-2.79c-1.21,7.54-.52,14.01,2.1,19.72.3.67.65,1.36,1.05,2.07-5.12,2.8-8.93,7.78-10.11,13.84l-6.28,32.24c-.58,2.97-.86,5.89-.85,8.72l-48.36-60.02ZM1144.11,484.75l-.03.15c-.2-.05-.41-.1-.61-.15h.64ZM903.25,403.5h-18.08c-.6,0-1.21.03-1.81.08-21.43,1.93-36.06,11.02-44.72,27.78-.28.55-.54,1.11-.77,1.68l-49.23,121.33-5.6-27.38,51.53-91.84c1.05-1.88,1.8-3.91,2.21-6.02l.32-1.63c1.11-5.74-.32-11.67-3.91-16.26h17.08c9.65,0,17.95-6.84,19.79-16.31l6-30.81h27.8l-4.5,23.11c-1.12,5.74.31,11.68,3.91,16.27ZM180.14,399.26c1.28,1.56,2.7,2.98,4.24,4.25h-53.09c1.91-2.44,3.28-5.35,3.91-8.57l17.14-88.05h32.97l-11.89,61.07c-2.35,12.07.04,23.18,6.72,31.29ZM308.52,304.98l-5.15,26.45h-27.8l5.15-26.45h27.8ZM491.28,403.52c-.46,0-.92-.01-1.38-.01h-36.32c1.91-2.44,3.28-5.35,3.91-8.57l5.95-30.55,27.29,38.38c.18.26.37.51.56.75ZM658.55,514.86l-40.64-31.95.28-1.43,35.14-.03c.47,0,.94-.02,1.41-.05,3.81-.27,7.32-.74,10.58-1.41l-6.78,34.88ZM1103.77,489.64l1.09-4.72,34.2.12-.97,4.78-34.32-.17ZM1128.68,564.17l-1.07,5.49h-30.02l1.07-5.49h30.02ZM1046.37,401.86l6.5-10.27h41.52l.72,3.53c.64,3.14,1.99,5.98,3.87,8.38h-39.69c-1.42,0-2.81.15-4.15.43-1.35-.28-2.73-.43-4.14-.43h-5.79c.41-.52.79-1.07,1.15-1.64ZM973.85,391.08h0l.04-.2-.04.2ZM1051,423.66h0M1254.39,403.5c.79-1.01,1.49-2.1,2.08-3.27l13.99-27.48,4.29,22.17c.63,3.28,2.04,6.24,4.01,8.71-1.31-.08-2.66-.13-4.03-.13h-20.35ZM800.08,266.1l-23.58,121.13c-1.12,5.74.31,11.68,3.91,16.27h-13.6c-4.38,0-8.54,1.42-11.94,3.92-3.43-2.52-7.6-3.92-11.94-3.92h-34.16c1.91-2.44,3.28-5.35,3.91-8.57l8.7-44.68,78.7-84.16ZM600.05,293.58l27.52,50.42-8.42,43.23c-1.13,5.78.34,11.76,3.99,16.37l-36.72-.1h-.06c-3.76,0-7.34.32-10.73.94,2.32-2.62,3.98-5.87,4.69-9.51l19.73-101.35ZM550.68,514.91s.05.06.08.08c-.03-.03-.05-.06-.08-.08ZM520.54,613.82s0,0,0,0c.04-.32.09-.64.13-.96h0c-.04.32-.09.64-.13.96ZM1354.55,423.72c.04-4.59-1.49-9.09-4.39-12.73,5.82-.93,11.01-4.38,14.11-9.53l26.22-43.67-5.73,29.45c-.91,4.67-.13,9.47,2.13,13.57-15.47,4.14-25.58,12.71-32.33,22.92Z"/>
      <path id="Pro_SkaterTM" data-name="Pro SkaterTM" class="cls-2" d="M1314.37,423.55l-2.96,16.8h4.46l2.14-12.13,1.51,12.13h3.8l5.79-12.16-2.14,12.16h4.46l2.96-16.8h-6.97l-4.72,9.67-1.35-9.67h-6.97ZM1302.27,427.58l-2.25,12.77h4.89l2.25-12.77h5l.71-4.03h-14.84l-.71,4.03h4.94Z"/>
      <path id="Pro_Skater" data-name="Pro Skater" class="cls-2" d="M219.9,423.66h-98.5l-40.23,207.08h46.13l12.95-66.68h52.1c16.28,0,25.35-7.59,28.56-24.12l17.9-92.16c3.16-16.26-2.91-24.12-18.92-24.12ZM177.31,525.58h-29.58l12.22-62.88h29.58l-12.22,62.88ZM352.6,423.66h-98.23l-40.23,207.08h46.13l14.57-75.01h6.47l12.88,75.01h48.3l.37-1.9-15.98-85.38h2.44c16.01,0,25.13-7.86,28.29-24.12l13.9-71.56c3.16-16.26-2.91-24.12-18.92-24.12ZM312.06,515.01h-29.31l10.16-52.31h29.31l-10.16,52.31ZM1274.74,423.66h-98.23l-40.23,207.08h46.13l14.57-75.01h6.47l12.88,75.01h48.3l.37-1.9-15.98-85.38h2.44c16.01,0,25.13-7.86,28.29-24.12l13.9-71.56c3.16-16.26-2.91-24.12-18.92-24.12ZM1234.2,515.01h-29.31l10.16-52.31h29.31l-10.16,52.31ZM1082.04,544.01h49.39l7.69-39.57h-49.39l7.74-39.84h61.32l7.95-40.93h-107.45l-36.91,190.01c-.59,10.71,5.74,15.91,20.06,17.08h84.89l7.95-40.93h-62.14l8.9-45.81ZM654.39,537.23l-58.61-46.08,5.79-29.82,51.75-.05c15.86-1.13,24.16-6.44,27.69-19.13l3.57-18.23-98.21-.27c-16.01,0-25.13,7.86-28.29,24.12l-9.9,50.96c-1.79,9.22-1,13.55,4.39,17.89l58.83,46.35-5.84,30.09h-57.12c-16.38,1.22-24.65,6.92-27.9,20.75.04-.32.09-.64.13-.96l-3.41,17.89h103.5c16.01,0,25.41-7.86,28.56-24.12l9.95-51.23c1.79-9.22.51-13.82-4.88-18.16ZM489.9,423.66h-78.42c-16.01,0-24.86,7.86-28.02,24.12l-30.85,158.84c-3.16,16.26,2.64,24.12,18.65,24.12h78.42c16.01,0,25.13-7.86,28.29-24.12l30.85-158.84c3.16-16.26-2.91-24.12-18.92-24.12ZM434.46,591.71h-32.83l25.06-129.02h32.83l-25.06,129.02ZM1051,423.66h-118.85l-7.95,40.93h36.36l-32.28,166.15h46.13l32.28-166.15h36.36l7.95-40.93ZM913.89,423.66h-28.73c-14.33,1.29-23.02,6.12-28.62,16.96l-74.3,183.1-20.47-100.04,55.2-98.39.32-1.63h-50.47l-39.62,81.04,15.74-81.04h-46.13l-40.23,207.08h46.13l16.32-84.03,13.25,84.03h93.35l10.89-30.9h35.82l-1.12,30.9h46.13l.1-.54-3.56-206.54ZM873.46,560.54h-22.79l25.09-70.47-2.29,70.47Z"/>
      <path id="Tony_Hawk_sTM" data-name="Tony Hawk&amp;apos;sTM" class="cls-2" d="M1825.59,245.19l-2.96,16.8h4.46l2.14-12.13,1.51,12.13h3.8l5.79-12.16-2.14,12.16h4.46l2.96-16.8h-6.97l-4.72,9.67-1.35-9.67h-6.97ZM1813.49,249.22l-2.25,12.77h4.89l2.25-12.77h5l.71-4.03h-14.84l-.71,4.03h4.94Z"/>
      <path id="Tony_Hawk_s" data-name="Tony Hawk&amp;apos;s" class="cls-2" d="M61.46,391.08l20.31-104.35H20.16l8.06-41.4h177.17l-8.06,41.4h-61.61l-20.31,104.35h-53.96ZM973.92,390.7l98.71-145.37h56.44l42.11,145.37-.07.38h-56.25l-4.02-19.65h-69.07l-12.43,19.65h-55.49l.07-.38ZM1065.88,334.04h35.21l-9.59-42.16-25.62,42.16ZM437.69,391.08l14.93-76.69,54.53,76.69h53.38l28.37-145.75h-54.15l-13.7,70.4-55.56-70.4h-53.38l-28.37,145.75h53.96ZM638.94,391.08h53.96l9.8-50.36,87.95-94.05.26-1.34h-57.78l-50.13,58-27.55-58h-57.78l-.26,1.34,51.34,94.05-9.8,50.36ZM859.42,343.96h68.88l-9.17,47.12h53.96l28.37-145.75h-53.96l-10.29,52.84h-68.88l10.29-52.84h-53.96l-28.37,145.75h53.96l9.17-47.12ZM193.21,371.82l20.87-107.22c2.27-11.64,10.45-19.27,21.55-19.27h141.2c11.1,0,16.31,7.63,14.04,19.27l-20.87,107.22c-2.27,11.64-10.45,19.27-21.54,19.27h-141.2c-11.1,0-16.31-7.63-14.04-19.27ZM251.11,351.59h68.88l13-66.77h-68.88l-13,66.77ZM1637.19,245.24h-33.41l-12.89,42.86,46.3-42.86ZM1458.49,391.08l10.06-51.7,39.3,51.7h70.03l.26-1.34-60.87-75.55,77.63-67.53.26-1.34h-68.69l-49.04,48.46,9.43-48.46h-109.98l-44.42,78.79-14.48-78.79h-52.04l-42.54,78.79-17.67-78.79h-57.59l37.95,145.75h52.43l40.6-79.74,15.44,79.74h52.43l85.18-141.9-27.62,141.9h53.96ZM1789.93,245.33h-132.78c-11.1,0-19.85,7.63-22.12,19.27l-7.32,37.58c-1.49,7.63-.08,12.21,7.32,14.5l98.88,31.67-1.19,6.11h-61.23l2.9-14.88h-53.96l-6.28,32.24c-2.26,11.64,3.52,19.27,14.62,19.27h132.4c11.1,0,19.85-7.63,22.12-19.27l7.35-37.77c1.49-7.63-.04-12.59-7.43-14.88l-98.76-31.29,1.15-5.91h61.23l-2.23,11.45h53.96l5.72-29.38c2.27-11.64-3.25-18.7-14.35-18.7Z"/>
      <path id="_4" data-name="4" class="cls-4" d="M1714.7,655.6l6.63-37.6h11.76c14.74,0,18.86-5.51,28.47-19.11,8.65-12.25,18.39-25.75,18.39-25.75l-50.7-.05,27.29-154.79h-67.9l-93.44,155.16-7.85,44.54h83.97l-6.63,37.6h50.02ZM1679.23,573.09h-32.49l41.97-74.48c1.05-1.83,4.83-8.76,6.63-12.78-1.2,4.75-2.98,12.78-3.37,14.97l-12.75,72.29Z"/>
      <path id="_" data-name="+" class="cls-1" d="M1602.9,511.97l-3.01,15.48c-.08.29-.15.59-.22.93-1.34,7-6.69,11.35-13.03,12.29h-21.54l-4,20.57c-1.83,5.51-6.17,9.74-11.94,10.75h-21.96l6.09-31.32h-32.21l3.4-17.47c2.06-6.98,8.4-10.94,15.37-10.94.52,0,1.01-.11,1.45-.28h17.57l3.89-20c2.14-6.76,8.09-11.66,15.86-11.08,1.29.09,2.29,0,3.05-.23h15.1l-6.09,31.32h32.21Z"/>
      <path id="_3" data-name="3" class="cls-4" d="M1368.22,655.6h55.49c29.94,0,45.76-19.35,49.82-42.35l9.14-51.84c2.77-15.7.36-24.83-9.82-29.21,8.68-3.65,14.54-12.05,16.92-25.56l7.98-45.27c4.76-27.02-.44-43.08-32.56-43.08h-56.22c-31.4,0-42.2,15.7-47.22,44.17l-4.96,28.11h49.65l4.96-28.11h36.14l-9.01,51.11-64.2-.04s8.24,14.71,15.8,26.59c10.09,15.86,15.59,16.16,34.96,16.16,10.85,0,8.09,0,8.09,0l-9.72,55.13h-38.33l5.54-31.4h-51.48l-5.86,33.22c-3.93,22.27,4.22,42.35,34.88,42.35Z"/>
      <path id="ARC_LOWER" class="cls-3" d="M297.73,667.93c144.81,76.83,366.13,125.96,614.2,125.96s467.59-48.73,612.42-125.01c-152.65,61.69-370.39,100.3-612.14,100.3s-461.73-39-614.49-101.25Z"/>
      <path id="ARC_UPPER" class="cls-3" d="M819.6,87.04c-210.96,10.57-396.51,56.89-523.03,124.49,124.1-50.88,292.13-86.34,481.49-97.85,23-1.41,35.31-15.45,41.55-26.64ZM1050.74,113.71c2.49.14,4.85.4,7.11.74,183.47,12.14,346.33,46.79,467.66,96.13-125.5-66.57-308.45-112.29-516.43-123.26,6.31,11.18,18.68,25.06,41.66,26.39Z"/>
      <path id="TH_ICON_24_09_10" class="cls-1" d="M1047.09,128.82c-.69,0-2.27,1.1-3.81,2.75-1.57,1.65-4.4,4.54-5.87,5.8-1.58,1.15-3.44,2.35-6.56,3.2-2.97.89-9.43,2.82-11.84,3.92-.42-.18-4.68-1.98-8.34-3.09-3.84-1.17-6.02-2.98-6.94-3.95s-3.29-2.3-4.31-2.87c-1.02-.57-1.65-.69-2.75-1.08s-1.58.12-2.75.6-1.51-.15-5.39-2.03c-3.88-1.89-10.16-6.78-10.53-7.06s-1.8.24-1.8.24l-23.1-13.4s-1.74-2.1-3.11-3.71-3.56-1.52-4.31-1.68-6.51-.12-7.18-.12c-.67,0-6.46-2.75-6.46-2.75l-.72-2.63s-11.21.43-12.09.48c-.87.04-9.73-2.98-11.01-3.35s-1.72-.06-3.11,0c-1.39.06-3.59,0-3.59,0,0,0-.55-1.69-1.08-2.51-.53-.82-1.46-.45-1.8-.48-.33-.03-.36-.48-.36-.48l1.44-1.32s-.33-.75-.6-1.44c-.26-.68-2.39-3.83-2.39-3.83,0,0-.17-1.55-.48-3.23-.31-1.68-3.21-17.73-3.11-18.19.1-.46,1.2-22.74,1.2-22.74,0,0,.01-1.32-.12-1.8s-.72-2.39-.72-2.39c0,0,.67-15.92.72-16.99.05-1.08-.89-2.2-1.08-2.75-.19-.56-2.7-1.61-5.74-2.87-3.05-1.26-15.91-4.5-18.43-4.79-2.52-.29-9.12-1.8-11.01-2.39-1.13-.35-1.82-.58-2.24-.7-.75-.91-1.74-2.2-2.75-2.68-.93-.6-1.6-1.22-1.6-1.22,0,0-.57-.81-1.37-1.45-.22-.62-.61-1.6-.61-1.6,0,0,.16-1.96-1.83-2.21-1.06.08-1.26.7-.84,2.44-.31.9.31,1.75.31,1.75v.76s-.38.43-.76,0c-.21-.46-.57-1.31-1.45-1.91-.18-.71-.81-1.9-2.36-1.53-1.06.65-.76,1.6-.76,1.6l.84,1.3s-1.36.53-.53,2.52c-.25.63-.29.78-.08,1.07.35.4.55.79.23.99-.32.2-.46.69-.46.69,0,0-1.16,1.5-.69,2.21-.79.8-1.25,2.07,1.45,1.83.24.41.99.53.99.53,0,0,.75.58,1.07,1.14.26.56.49,1.24,1.14,1.22.37.51,1.35.24,2.82.19.67.18,2.77.19,3.47.13.34.04.88.12,1.49.21,2.84.64,8.04,2.03,11.59,3.11,4.78,1.46,15.56,5.86,16.28,5.98.72.12,1.3.16,1.56.6.25.44.57,1.64.48,1.91s-1.8,3.35-1.8,3.35c0,0-.04.14-.48.48-.44.34-.93,4.23-1.44,6.58s-1.52,4.2-1.68,4.43c-.16.23-.91.62-1.44,1.08-.52.46-2.01,3.94-2.15,4.19-.14.25-.39.04-.6,0-.21-.04-.24,2.63-.24,2.63,0,0-.09.05-.24-.12-.15-.17-1.56-1.91-1.56-1.91,0,0,.27-.47.61-.98.37-.38.75-.76.93-1.05.33-.55.23-1.34.23-1.34,0,0-.31-1.51.28-3.03.24-1.28.3-2.29.41-3.43-.15-1.29.03-2.11-1.6-4.65.21-.66-.31-1.98-.31-1.98,0,0-.3-.91-.69-1.07-.48-.78-1.77-3.64-3.05-5.11-1.28-1.47-3-2.95-6.1-3.74-3.11-.79-5.08-.7-8.01.69-2.93,1.38-4.5,2.3-5.64,3.81-1.14,1.52-2.3,3.66-2.67,6.79-.11,2.3,1.14,5.95,1.14,5.95,0,0,1.16,2.75,1.37,3.05-.09.5-.04.6.15.69-.06.21.15.15.15.15,0,0-.02.09.15.23.08.32.33,1.24.92,1.22.07-.09.4.13,1.07.92s1.78,2.25,3.13,3.66c1.35,1.41,2.4,3.27,2.44,3.66.04.39.31.69.31.69.03.03.09.08.16.13-.07.29-.21.63-.46.96-.47.61-5.03,1.55-6.34,1.91s-5.02,3.14-6.22,4.31c-1.21,1.17-3.2,6.98-3.23,7.54s.4,6.55.12,7.54c-.28.99-.44,6.99-.36,8.38.08,1.39,1.94,2.05,2.27,2.51s.87,7.73,1.08,8.5c.21.77-.45,2.69-1.8,7.9-1.35,5.21.25,13.96.48,14.84.23.88-.54,7.34-.36,10.65s3.4,10.22,3.71,10.41c.31.19,1.46,1.05,1.8,1.56.34.5.54.46,1.2.48.66.02,3.37,1.07,3.59,1.32.22.24.35.16.84.12.49-.04,1.32.59,2.99,1.2,1.67.61,2.69.34,2.99-.24.3-.58-.6-1.32-.6-1.32,0,0,2.15-.84,2.63-1.56.48-.71-.37-.98-.96-1.32-.59-.34-.42-.15-.72-.36-.3-.21-.95-.15-1.44-.36-.49-.21-1.53-.18-2.63-.72s-1.91-1.68-1.91-1.68c0,0,.45.14,1.2.6.74.45,1.49.2,1.56-.36s-.76-2.02-1.08-2.75c-.32-.73-.51-1.42-1.44-2.15-.92-.74-2.53-.79-3.59-1.8-1.06-1-1.61-2.47-1.8-3.83-.18-1.36.87-7,2.87-13.88,2-6.88.81-13.03.72-14.36s.09-3.24.48-4.67c.39-1.43.72-4.67.72-4.67,0,0,2.22,3.29,2.87,4.07.66.78,1.72,1.34,2.27,1.8s1.51,2.52,2.63,5.74c1.12,3.22,2.15,14.96,2.15,14.96l1.8,3.83s.81.5,1.68.84c.86.34,1.32,1.96,1.68,2.63.36.67,2.87,3.59,2.87,3.59,0,0,2.33,1.39,4.79,2.63s11.13,8.02,11.13,8.02c0,0,2.35.79,3.71.96,1.36.16,4.31-.27,6.46-.36,2.15-.09,14.41.6,15.2.6.79,0,5.68-1.31,6.22-1.44.55-.12,9.22.84,9.22.84l.48-.24s.38-.04.96.12c.58.16.6.6.6.6,0,0-2.23,5.96-2.63,7.18-.4,1.22-1.16,1.44-1.56,1.44-.4,0-1.44.12-1.44.12l-4.81,5.87c-.59-.19-.97-.25-.97-.25,0,0-3.78-.58-4.65-.46-.87.12-3.25.97-3.51,3.97-.62,1.04-.84,1.75-.84,1.75,0,0-.77.86-.84,1.14-1.12,1.17-2.78,3.98-3.13,4.96-.29.55-.69,1.07-.69,1.07,0,0-1.03.99-1.14,2.82-.11,1.83-.46,2.98.46,4.58s2.69,3.07,5.95,5.34c3.26,2.27,9.14,6.34,10.45,7.55,1.58,1.21,5.24,3.67,9.53,4.58,4.29.9,8.08,1.1,11.59.84,3.65-.5,5.26-1.75,5.26-1.75,0,0,5.87-.03,10.75-2.97l.38-.23s.26,1.06,1.45,1.68c0,0-2.6,1.06-2.36,4.14.27,3.4,1.67,4.9,4.19,5.09,2.45.18,6.01-1.19,6.18-3.74.17-2.45-.32-3.54-.69-3.97s-.53-.53-.53-.53c0,0,.03.01.08-.08.14-.12-.15-.53-.15-.53,0,0,.22-.2.23-.46,0-.22-.22-.56-.28-.66.03,0,.1-.03.28-.26,2.33-2.2,1.99-2.87,1.6-5.8.65-.28,8.7-3.74,8.7-3.74l7.55-3.13s6.35-2.79,7.93-3.51,7.63-3.41,8.62-3.89c.99-.48,6.78-3.11,8.24-3.74s7.22-3.14,8.92-3.66,5.26-2.14,5.26-2.14c0,0,.51.51,1.14.46-.11.56-.04,1.15.31,1.3.07.33.08.76.08.76,0,0-1.77,1.63-2.29,3.66-.28,1.92.37,3.8,1.91,4.88,1.54,1.08,4.24,1.29,5.49.31s1.6-1.91,1.6-1.91c0,0,2.4-2.62-.23-5.95,1.1-1.54,2.29-3.36,2.29-3.36,0,0,3.25.21,4.27-.84,1.02-1.05,1.45-2.06,1.45-2.06,0,0,1.56-1.32.92-4.35-.66-1.9-1.91-2.76-2.97-3.43.68-1.11,2.97-3.97,2.97-3.97,0,0,1.68-2.02,3.2-4.58,1.73-2.55,3.98-5.75,4.5-7.32.39-1.51-.38-2.07-1.07-2.06ZM852.21,45.61s-1.39-.3-1.53-.61c.19-.23.08-.69.08-.69l-.61-.08s.21-.48.92-.76c.11.34.82,1.52,1.22,1.75-.09.23-.08.38-.08.38ZM856,49.91c-.52-.62-1.51-1.55-1.51-1.55-.13-.16-.67-.66-.67-.66,0,0,.14-.13.48-.08.33.05,1.36.23,1.49.33.13.11.29.51.53,1.16.24.65,1.09,2.16,1.1,2.22.01.05-.9-.81-1.42-1.43ZM872.27,36.23s1.35,2.52,1.22,4.42c-.1,1.2-.31,1.75-.31,1.75,0,0,.16-1.73-.84-3.74-.43-.9-.69-1.68-.69-1.68,0,0,.43-.05.61-.76ZM992.7,155.75l-5.49,2.14s-6.69,2.61-9,3.58c-2.43.94-9,3.43-9,3.43,0,0-4.87,2.03-7.02,3.2-2.17,1.14-5.49,2.9-5.49,2.9,0,0-5.29,2.42-7.25,2.59-2.27.32-10.01,1.49-12.2,2.06-.37-.3-.79-.57-1.07-.69,0,0-.33-.04-1.45-1.6s-2.43-4.48-2.59-5.26c-.01-.18-.15-.61-.15-.61,0,0,.93-1.64-.46-4.04-.2-.7-.36-1.33-2.06-1.53-.17-.38-.1-.58.03-.79,0,0,.02,0,.02,0,.23-.29,7.05-5.53,7.3-5.98.25-.45.72-1.32.72-1.32,0,0,8.25-7.45,9.81-8.5,1.56-1.05,3.91-3.64,5.15-5.03,1.23-1.38,3.11-6.58,3.11-6.58,3.72.94,13.16,2.27,13.16,2.27l1.91,1.8s3.02.02,3.59.24c.57.22,10.89,4.79,10.89,4.79,0,0,.16.92.24,1.2s2.76,1.93,3.83,2.75c1.07.82,1.68,2.03,1.68,2.03,0,0-.07,2.09,0,2.39.05.24,1.92,2.96,2.74,4.13l-.95.41Z"/>
    </g>
  </g>
</svg>